<svg
  viewBox="0 0 664 377"
  fill="none"
  xmlns="http://www.w3.org/2000/svg"
  height="36"
>
  <path
    d="M0 89.528V1.612H15.5L22.196 19.592V89.528H0ZM60.636 89.528L9.3 24.304L15.5 1.612L66.96 66.836L60.636 89.528ZM60.636 89.528L54.932 71.052V1.612H77.128V89.528H60.636Z"
    fill="#ffffff"
  />
  <path
    d="M135.538 91.14C128.759 91.14 122.518 89.9827 116.814 87.668C111.11 85.3533 106.108 82.1293 101.81 77.996C97.5938 73.8627 94.2871 69.0267 91.8898 63.488C89.4925 57.8667 88.2938 51.832 88.2938 45.384C88.2938 38.936 89.4511 32.984 91.7658 27.528C94.1631 21.9893 97.4698 17.1533 101.686 13.02C105.902 8.88667 110.862 5.704 116.566 3.47201C122.27 1.15734 128.511 0 135.29 0C142.068 0 148.31 1.15734 154.014 3.47201C159.718 5.704 164.678 8.88667 168.894 13.02C173.11 17.1533 176.375 21.9893 178.69 27.528C181.087 33.0667 182.286 39.06 182.286 45.508C182.286 51.956 181.087 57.9493 178.69 63.488C176.375 69.0267 173.11 73.904 168.894 78.12C164.678 82.2533 159.718 85.4773 154.014 87.792C148.392 90.024 142.234 91.14 135.538 91.14ZM135.29 71.3C140.25 71.3 144.548 70.2253 148.186 68.076C151.823 65.9267 154.634 62.9093 156.618 59.024C158.602 55.1387 159.594 50.592 159.594 45.384C159.594 41.5813 159.015 38.1093 157.858 34.968C156.783 31.8267 155.171 29.14 153.022 26.908C150.872 24.5933 148.31 22.816 145.334 21.576C142.358 20.336 139.01 19.716 135.29 19.716C130.33 19.716 126.031 20.7907 122.394 22.94C118.756 25.0067 115.946 27.9827 113.962 31.868C111.978 35.7533 110.986 40.2587 110.986 45.384C110.986 49.352 111.523 52.948 112.598 56.172C113.755 59.3133 115.408 62.0413 117.558 64.356C119.707 66.588 122.27 68.324 125.246 69.564C128.222 70.7213 131.57 71.3 135.29 71.3Z"
    fill="#ffffff"
  />
  <path
    d="M210.995 53.94V38.068H227.735C231.372 38.068 234.141 37.2 236.043 35.464C238.027 33.6453 239.019 31.2067 239.019 28.148C239.019 25.172 238.027 22.7747 236.043 20.956C234.141 19.0547 231.372 18.104 227.735 18.104H210.995V1.612H230.835C236.787 1.612 241.995 2.728 246.459 4.96C251.005 7.192 254.56 10.2507 257.123 14.136C259.685 18.0213 260.967 22.568 260.967 27.776C260.967 32.984 259.644 37.572 256.999 41.54C254.436 45.4253 250.84 48.484 246.211 50.716C241.581 52.8653 236.167 53.94 229.967 53.94H210.995ZM193.387 89.528V1.612H215.583V89.528H193.387ZM241.003 89.528L215.459 51.832L235.423 46.996L266.671 89.528H241.003Z"
    fill="#ffffff"
  />
  <path
    d="M288.918 89.528V70.432H309.998C314.958 70.432 319.257 69.4813 322.894 67.58C326.614 65.6787 329.466 62.868 331.45 59.148C333.434 55.3453 334.426 50.7573 334.426 45.384C334.426 40.0933 333.393 35.6293 331.326 31.992C329.342 28.272 326.531 25.4613 322.894 23.56C319.257 21.6587 314.958 20.708 309.998 20.708H287.926V1.612H310.122C316.901 1.612 323.142 2.68667 328.846 4.836C334.55 6.90267 339.51 9.87867 343.726 13.764C347.942 17.6493 351.207 22.2787 353.522 27.652C355.919 33.0253 357.118 38.9773 357.118 45.508C357.118 52.1213 355.919 58.1147 353.522 63.488C351.207 68.8613 347.942 73.4907 343.726 77.376C339.51 81.2613 334.55 84.2787 328.846 86.428C323.225 88.4947 317.066 89.528 310.37 89.528H288.918ZM273.914 89.528V1.612H296.11V89.528H273.914Z"
    fill="#ffffff"
  />
  <path d="M368.246 89.528V1.612H390.442V89.528H368.246Z" fill="#ffffff"/>
  <path
    d="M448.683 90.892C441.987 90.892 435.787 89.776 430.083 87.544C424.379 85.2293 419.378 82.0467 415.079 77.996C410.863 73.8627 407.557 69.0267 405.159 63.488C402.845 57.9493 401.687 51.956 401.687 45.508C401.687 38.9773 402.845 32.984 405.159 27.528C407.557 21.9893 410.863 17.1947 415.079 13.144C419.378 9.09334 424.338 5.91067 429.959 3.59601C435.663 1.28134 441.822 0.124006 448.435 0.124006C455.379 0.124006 461.621 1.24001 467.159 3.47201C472.698 5.62134 477.575 8.63867 481.791 12.524L466.911 27.404C464.845 25.0893 462.282 23.2707 459.223 21.948C456.165 20.6253 452.569 19.964 448.435 19.964C444.881 19.964 441.615 20.5427 438.639 21.7C435.746 22.8573 433.225 24.5933 431.075 26.908C428.926 29.14 427.231 31.8267 425.991 34.968C424.834 38.1093 424.255 41.6227 424.255 45.508C424.255 49.3933 424.834 52.9067 425.991 56.048C427.231 59.1893 428.926 61.9173 431.075 64.232C433.225 66.464 435.746 68.2 438.639 69.44C441.615 70.5973 444.881 71.176 448.435 71.176C452.569 71.176 456.206 70.556 459.347 69.316C462.489 67.9933 465.175 66.1333 467.407 63.736L482.287 78.616C477.989 82.5013 473.111 85.5187 467.655 87.668C462.282 89.8173 455.958 90.892 448.683 90.892Z"
    fill="#ffffff"
  />
  <path
    d="M0 232.528V144.612H22.196V232.528H0ZM17.608 199.668V180.944H61.132V199.668H17.608ZM17.608 163.336V144.612H63.116V163.336H17.608Z"
    fill="#ffffff"
  />
  <path
    d="M74.5938 232.528V144.612H96.7897V232.528H74.5938Z"
    fill="#ffffff"
  />
  <path
    d="M112.375 232.528V144.612H127.875L134.571 162.592V232.528H112.375ZM173.011 232.528L121.675 167.304L127.875 144.612L179.335 209.836L173.011 232.528ZM173.011 232.528L167.307 214.052V144.612H189.503V232.528H173.011Z"
    fill="#ffffff"
  />
  <path
    d="M198.685 232.528L232.785 144.612H254.237L287.965 232.528H264.777L239.357 158.624H247.417L221.377 232.528H198.685ZM219.393 217.152V199.544H267.877V217.152H219.393Z"
    fill="#ffffff"
  />
  <path
    d="M296.195 232.528V144.612H311.695L318.391 162.592V232.528H296.195ZM356.831 232.528L305.495 167.304L311.695 144.612L363.155 209.836L356.831 232.528ZM356.831 232.528L351.127 214.052V144.612H373.323V232.528H356.831Z"
    fill="#ffffff"
  />
  <path
    d="M431.609 233.892C424.913 233.892 418.713 232.776 413.009 230.544C407.305 228.229 402.304 225.047 398.005 220.996C393.789 216.863 390.482 212.027 388.085 206.488C385.77 200.949 384.613 194.956 384.613 188.508C384.613 181.977 385.77 175.984 388.085 170.528C390.482 164.989 393.789 160.195 398.005 156.144C402.304 152.093 407.264 148.911 412.885 146.596C418.589 144.281 424.748 143.124 431.361 143.124C438.305 143.124 444.546 144.24 450.085 146.472C455.624 148.621 460.501 151.639 464.717 155.524L449.837 170.404C447.77 168.089 445.208 166.271 442.149 164.948C439.09 163.625 435.494 162.964 431.361 162.964C427.806 162.964 424.541 163.543 421.565 164.7C418.672 165.857 416.15 167.593 414.001 169.908C411.852 172.14 410.157 174.827 408.917 177.968C407.76 181.109 407.181 184.623 407.181 188.508C407.181 192.393 407.76 195.907 408.917 199.048C410.157 202.189 411.852 204.917 414.001 207.232C416.15 209.464 418.672 211.2 421.565 212.44C424.541 213.597 427.806 214.176 431.361 214.176C435.494 214.176 439.132 213.556 442.273 212.316C445.414 210.993 448.101 209.133 450.333 206.736L465.213 221.616C460.914 225.501 456.037 228.519 450.581 230.668C445.208 232.817 438.884 233.892 431.609 233.892Z"
    fill="#ffffff"
  />
  <path
    d="M474.809 232.528V144.612H497.005V232.528H474.809Z"
    fill="#ffffff"
  />
  <path
    d="M506.142 232.528L540.242 144.612H561.694L595.422 232.528H572.234L546.814 158.624H554.874L528.834 232.528H506.142ZM526.85 217.152V199.544H575.334V217.152H526.85Z"
    fill="#ffffff"
  />
  <path
    d="M603.652 232.528V144.612H625.848V232.528H603.652ZM621.26 232.528V213.432H663.668V232.528H621.26Z"
    fill="#ffffff"
  />
  <path
    d="M0 375.528V287.612H15.5L22.196 305.592V375.528H0ZM60.636 375.528L9.3 310.304L15.5 287.612L66.96 352.836L60.636 375.528ZM60.636 375.528L54.932 357.052V287.612H77.128V375.528H60.636Z"
    fill="#ffffff"
  />
  <path
    d="M92.7578 375.528V287.612H114.954V375.528H92.7578ZM110.366 375.528V356.804H157.982V375.528H110.366ZM110.366 339.816V321.588H153.518V339.816H110.366ZM110.366 306.336V287.612H157.238V306.336H110.366Z"
    fill="#ffffff"
  />
  <path
    d="M192.2 375.528L164.3 287.612H186.248L206.336 355.316H196.788L216.628 287.612H234.36L254.2 355.316H244.776L264.864 287.612H286.688L258.664 375.528H240.808L220.968 307.948H229.896L210.18 375.528H192.2Z"
    fill="#ffffff"
  />
  <path
    d="M320.091 376.892C312.733 376.892 306.327 375.776 300.871 373.544C295.497 371.312 290.579 367.799 286.115 363.004L300.126 348.868C303.185 352.092 306.451 354.572 309.923 356.308C313.395 357.961 317.321 358.788 321.703 358.788C325.423 358.788 328.275 358.168 330.259 356.928C332.325 355.605 333.358 353.828 333.358 351.596C333.358 349.529 332.614 347.835 331.126 346.512C329.638 345.107 327.654 343.908 325.174 342.916C322.777 341.841 320.091 340.849 317.115 339.94C314.221 338.948 311.287 337.791 308.311 336.468C305.417 335.063 302.73 333.368 300.25 331.384C297.853 329.4 295.91 326.92 294.422 323.944C292.934 320.968 292.19 317.289 292.19 312.908C292.19 307.287 293.513 302.492 296.159 298.524C298.887 294.556 302.648 291.497 307.443 289.348C312.237 287.199 317.817 286.124 324.182 286.124C330.548 286.124 336.417 287.199 341.79 289.348C347.164 291.497 351.587 294.473 355.059 298.276L340.923 312.288C338.277 309.643 335.59 307.659 332.862 306.336C330.134 305.013 327.159 304.352 323.935 304.352C320.876 304.352 318.478 304.889 316.742 305.964C315.006 307.039 314.138 308.568 314.138 310.552C314.138 312.536 314.883 314.148 316.371 315.388C317.859 316.628 319.801 317.744 322.199 318.736C324.679 319.645 327.365 320.596 330.259 321.588C333.235 322.58 336.169 323.737 339.062 325.06C341.956 326.383 344.601 328.077 346.999 330.144C349.479 332.211 351.462 334.815 352.951 337.956C354.439 341.097 355.182 344.9 355.182 349.364C355.182 358.127 352.083 364.905 345.883 369.7C339.765 374.495 331.168 376.892 320.091 376.892Z"
    fill="#ffffff"
  />
</svg>
